<?xml version="1.0" encoding="UTF-8"?>
<svg width="800" height="400" xmlns="http://www.w3.org/2000/svg">
  <style>
    .container { fill: #f5f5f5; stroke: #ccc; stroke-width: 2; }
    .service { fill: #e1f5fe; stroke: #29b6f6; stroke-width: 2; }
    .database { fill: #e8f5e9; stroke: #66bb6a; stroke-width: 2; }
    .kafka { fill: #fff8e1; stroke: #ffca28; stroke-width: 2; }
    .arrow { stroke: #546e7a; stroke-width: 2; fill: none; marker-end: url(#arrow); }
    .label { font-family: Arial, sans-serif; font-size: 14px; fill: #333; text-anchor: middle; }
    .service-label { font-family: Arial, sans-serif; font-size: 16px; font-weight: bold; fill: #01579b; text-anchor: middle; }
    .db-label { font-family: Arial, sans-serif; font-size: 16px; font-weight: bold; fill: #2e7d32; text-anchor: middle; }
    .kafka-label { font-family: Arial, sans-serif; font-size: 16px; font-weight: bold; fill: #ff6f00; text-anchor: middle; }
    .subtitle { font-family: Arial, sans-serif; font-size: 12px; fill: #666; text-anchor: middle; }
    .title { font-family: Arial, sans-serif; font-size: 24px; font-weight: bold; fill: #333; text-anchor: middle; }
  </style>
  
  <defs>
    <marker id="arrow" viewBox="0 0 10 10" refX="9" refY="5"
      markerWidth="6" markerHeight="6" orient="auto">
      <path d="M 0 0 L 10 5 L 0 10 z" fill="#546e7a"/>
    </marker>
  </defs>
  
  <!-- Title -->
  <text x="400" y="40" class="title">Restaurant Microservices Architecture</text>
  
  <!-- Restaurant Service -->
  <rect x="100" y="100" width="200" height="100" rx="10" class="service" />
  <text x="200" y="140" class="service-label">Restaurant Service</text>
  <text x="200" y="170" class="subtitle">Go, Gin, PostgreSQL, Kafka</text>
  
  <!-- Restaurant Database -->
  <rect x="100" y="250" width="200" height="80" rx="10" class="database" />
  <text x="200" y="290" class="db-label">Restaurant Database</text>
  <text x="200" y="310" class="subtitle">PostgreSQL</text>
  
  <!-- Feedback Service -->
  <rect x="500" y="100" width="200" height="100" rx="10" class="service" />
  <text x="600" y="140" class="service-label">Feedback Service</text>
  <text x="600" y="170" class="subtitle">Go, Gin, GORM, Kafka</text>
  
  <!-- Feedback Database -->
  <rect x="500" y="250" width="200" height="80" rx="10" class="database" />
  <text x="600" y="290" class="db-label">Feedback Database</text>
  <text x="600" y="310" class="subtitle">PostgreSQL</text>
  
  <!-- Kafka -->
  <rect x="300" y="300" width="200" height="60" rx="10" class="kafka" />
  <text x="400" y="335" class="kafka-label">Kafka</text>
  
  <!-- Connections -->
  <path d="M 200 200 L 200 250" class="arrow" />
  <path d="M 600 200 L 600 250" class="arrow" />
  <path d="M 200 330 L 300 330" class="arrow" />
  <path d="M 500 330 L 600 330 L 600 330" class="arrow" />
  <path d="M 300 150 L 500 150" class="arrow" />
  
  <!-- Connection Labels -->
  <text x="240" y="225" class="label">SQL</text>
  <text x="640" y="225" class="label">GORM</text>
  <text x="350" y="135" class="label">HTTP/JSON API</text>
  <text x="250" y="350" class="label">Produces Events</text>
  <text x="550" y="350" class="label">Consumes Events</text>
</svg>
