<?xml version="1.0" encoding="UTF-8"?>
<svg width="800" height="600" xmlns="http://www.w3.org/2000/svg">
  <style>
    .service {
      fill: #f0f0ff;
      stroke: #3366cc;
      stroke-width: 2;
    }
    .gateway {
      fill: #ffefd5;
      stroke: #ff6600;
      stroke-width: 2;
    }
    .database {
      fill: #e6f5ff;
      stroke: #0099cc;
      stroke-width: 2;
    }
    .message-queue {
      fill: #fff0f5;
      stroke: #cc3366;
      stroke-width: 2;
    }
    .title {
      font-family: Arial, sans-serif;
      font-size: 24px;
      font-weight: bold;
      text-anchor: middle;
    }
    .label {
      font-family: Arial, sans-serif;
      font-size: 14px;
      font-weight: bold;
      text-anchor: middle;
    }
    .arrow {
      stroke: #666;
      stroke-width: 2;
      stroke-linecap: round;
      stroke-dasharray: 1, 0;
      fill: none;
    }
    .arrow-head {
      fill: #666;
    }
    .client {
      fill: #f5f5f5;
      stroke: #999;
      stroke-width: 2;
    }
  </style>

  <!-- Title -->
  <text class="title" x="400" y="40">Restaurant Microservices Architecture with API Gateway</text>

  <!-- Client -->
  <rect class="client" x="350" y="70" width="100" height="50" rx="10" ry="10" />
  <text class="label" x="400" y="100">Client</text>

  <!-- API Gateway -->
  <rect class="gateway" x="250" y="170" width="300" height="60" rx="10" ry="10" />
  <text class="label" x="400" y="205">API Gateway (Traefik)</text>

  <!-- Restaurant Service -->
  <rect class="service" x="150" y="280" width="200" height="60" rx="10" ry="10" />
  <text class="label" x="250" y="315">Restaurant Service</text>

  <!-- Feedback Service -->
  <rect class="service" x="450" y="280" width="200" height="60" rx="10" ry="10" />
  <text class="label" x="550" y="315">Feedback Service</text>

  <!-- Restaurant Database -->
  <rect class="database" x="150" y="390" width="200" height="60" rx="10" ry="10" />
  <text class="label" x="250" y="425">Restaurant Database</text>

  <!-- Feedback Database -->
  <rect class="database" x="450" y="390" width="200" height="60" rx="10" ry="10" />
  <text class="label" x="550" y="425">Feedback Database</text>

  <!-- Kafka -->
  <rect class="message-queue" x="300" y="490" width="200" height="60" rx="10" ry="10" />
  <text class="label" x="400" y="525">Kafka</text>

  <!-- Arrows -->
  <!-- Client to Gateway -->
  <path class="arrow" d="M400,120 L400,170" />
  <polygon class="arrow-head" points="400,170 395,160 405,160" />

  <!-- Gateway to Services -->
  <path class="arrow" d="M350,230 L250,280" />
  <polygon class="arrow-head" points="250,280 255,270 260,280" />
  
  <path class="arrow" d="M450,230 L550,280" />
  <polygon class="arrow-head" points="550,280 545,270 540,280" />

  <!-- Services to Databases -->
  <path class="arrow" d="M250,340 L250,390" />
  <polygon class="arrow-head" points="250,390 245,380 255,380" />
  
  <path class="arrow" d="M550,340 L550,390" />
  <polygon class="arrow-head" points="550,390 545,380 555,380" />

  <!-- Services to Kafka -->
  <path class="arrow" d="M250,450 L250,470 L400,490" />
  <polygon class="arrow-head" points="400,490 390,485 390,495" />
  
  <path class="arrow" d="M550,450 L550,470 L400,490" />
  <polygon class="arrow-head" points="400,490 410,485 410,495" />

  <!-- Kafka to Services (feedback) -->
  <path class="arrow" d="M400,490 L315,470 L315,340" />
  <polygon class="arrow-head" points="315,340 310,350 320,350" />
</svg>
